<?xml version="1.0" standalone="no"?>
<!DOCTYPE svg PUBLIC "-//W3C//DTD SVG 20010904//EN"
 "http://www.w3.org/TR/2001/REC-SVG-20010904/DTD/svg10.dtd">
<svg version="1.0" xmlns="http://www.w3.org/2000/svg"
 width="509.000000pt" height="509.000000pt" viewBox="0 0 509.000000 509.000000"
 preserveAspectRatio="xMidYMid meet">
<metadata>
Created by potrace 1.11, written by Peter Selinger 2001-2013
</metadata>
<g transform="translate(0.000000,509.000000) scale(0.100000,-0.100000)"
fill="#000000" stroke="none">
<path d="M130 3808 c0 -2 -1 -43 -2 -93 l-2 -90 254 -3 255 -3 214 -482 c118
-265 234 -525 257 -577 23 -52 101 -228 174 -390 72 -162 146 -328 163 -367
l31 -73 1293 0 1293 0 0 95 0 95 -1231 2 -1231 3 -124 280 c-69 154 -160 359
-203 455 -44 96 -107 238 -141 315 -35 77 -93 208 -130 290 -37 83 -93 209
-125 280 -31 72 -71 160 -87 198 l-31 67 -313 0 c-173 0 -314 -1 -314 -2z"/>
<path d="M1727 3630 c-96 -24 -177 -93 -227 -193 -81 -163 -62 -393 45 -523
98 -120 290 -130 403 -22 l32 32 0 -33 c0 -41 16 -71 38 -71 38 0 42 18 42
211 0 157 -3 190 -16 203 -21 21 -30 20 -48 -6 -11 -15 -16 -45 -16 -86 0
-119 -74 -212 -187 -237 l-33 -7 0 326 0 326 35 0 c46 0 99 -22 142 -60 28
-25 38 -28 53 -20 33 18 26 63 -17 100 -20 18 -50 38 -67 45 -44 18 -134 26
-179 15z"/>
<path d="M4349 3631 c-77 -16 -143 -80 -158 -155 -6 -26 -12 -32 -41 -36 -32
-5 -35 -8 -35 -40 0 -31 3 -35 30 -40 l30 -5 5 -265 5 -264 100 3 c55 1 103 5
107 7 5 3 8 122 8 265 l0 260 41 -3 42 -3 102 -250 101 -250 -14 -44 c-10 -30
-25 -49 -47 -62 -39 -24 -50 -55 -29 -87 26 -39 79 -11 117 63 11 22 67 177
124 345 111 325 121 375 74 375 -29 0 -31 -3 -76 -150 -20 -66 -40 -123 -44
-127 -3 -4 -29 54 -57 130 l-50 137 -142 3 -142 3 0 54 c0 65 12 70 72 28 l39
-26 22 21 c61 61 -63 138 -184 113z"/>
<path d="M3025 3586 c-17 -7 -36 -20 -43 -29 -10 -11 -23 -14 -43 -10 -33 6
-72 -15 -90 -48 -13 -25 1 -39 39 -39 20 0 22 -4 22 -60 0 -50 -3 -60 -17 -61
-15 0 -15 -2 2 -9 l20 -9 -20 -1 -20 -1 20 -9 c13 -6 15 -9 5 -9 -30 -1 -43
16 -36 45 6 21 9 25 16 14 5 -8 12 -12 15 -8 11 10 -58 109 -72 104 -7 -3 -15
0 -19 6 -5 7 -2 8 6 3 8 -5 11 -4 6 3 -9 15 -69 26 -99 18 -20 -5 -24 -12 -26
-58 -3 -68 -12 -79 -67 -73 -35 3 -42 1 -37 -10 3 -8 10 -15 17 -15 7 0 6 -4
-2 -9 -8 -4 -13 -12 -13 -17 2 -19 -11 -44 -19 -39 -5 3 -12 0 -15 -6 -4 -6
-18 -8 -30 -5 -13 3 -27 1 -30 -4 -4 -6 -11 -7 -17 -4 -7 5 -9 1 -5 -9 3 -10
2 -17 -4 -17 -11 0 -8 -113 4 -157 15 -58 63 -127 80 -116 6 3 7 1 3 -6 -14
-23 87 -101 131 -101 14 0 24 9 31 29 6 16 24 39 41 52 22 16 31 32 32 53 l1
31 7 -30 c5 -22 12 -29 25 -27 10 2 15 -1 12 -7 -11 -17 14 -23 30 -7 9 9 11
16 4 16 -7 0 -6 5 2 14 7 8 16 12 19 10 9 -5 20 26 13 37 -3 5 -11 6 -17 3 -8
-5 -8 -3 1 7 14 16 16 43 2 34 -5 -3 -10 -1 -10 4 0 6 9 11 19 11 16 0 19 -6
15 -27 l-4 -28 17 30 c13 22 18 53 18 113 0 45 2 82 5 82 3 0 39 -9 80 -20 89
-23 101 -24 76 -5 -25 19 -15 65 15 65 18 0 19 -4 13 -37 -4 -21 -11 -47 -16
-57 -6 -10 -7 -44 -4 -75 21 -187 116 -293 260 -292 35 0 82 8 105 17 49 19
91 66 91 100 0 45 -40 42 -100 -6 -14 -11 -44 -22 -67 -26 l-43 -7 0 237 0
237 38 -6 c20 -4 57 -20 81 -37 51 -34 74 -30 79 16 4 36 -17 59 -81 86 -69
30 -156 24 -222 -14 l-46 -27 7 25 c5 20 2 26 -10 26 -10 0 -20 15 -27 45 -11
44 -60 105 -85 105 -7 0 -18 2 -26 5 -7 2 -27 -2 -43 -9z m97 -36 c27 -21 55
-76 44 -87 -11 -11 -196 39 -196 54 0 20 60 53 96 53 17 0 43 -9 56 -20z
m-142 -101 c0 -27 -3 -30 -27 -27 -21 2 -29 9 -31 27 -3 18 0 22 11 18 9 -3
18 1 21 9 9 24 26 6 26 -27z m74 -17 c-9 -35 -9 -35 -39 -28 -19 5 -25 13 -25
35 0 37 6 41 41 29 25 -8 28 -14 23 -36z m69 12 c24 -9 6 -58 -22 -62 -31 -5
-45 11 -37 42 6 26 27 33 59 20z m48 -31 c0 -11 3 -13 6 -5 2 6 11 12 18 12
11 0 12 -6 4 -30 -11 -30 -31 -38 -57 -22 -9 7 -10 15 -3 35 12 30 31 36 32
10z m-201 -44 c0 -35 -24 -39 -40 -8 -16 28 -6 49 19 42 15 -4 21 -13 21 -34z
m61 11 c5 0 9 -13 9 -30 0 -16 -5 -30 -11 -30 -23 0 -47 21 -44 37 2 10 4 22
4 27 1 4 8 5 17 2 9 -3 20 -6 25 -6z m67 -19 c12 -7 8 -61 -5 -61 -19 0 -43
25 -43 45 0 26 22 33 48 16z m72 -25 c0 -21 -28 -46 -45 -40 -16 7 -18 14 -9
38 8 20 54 21 54 2z m-216 -12 c23 -9 22 -67 -1 -62 -12 2 -19 14 -21 36 -3
34 -2 35 22 26z m74 -46 c3 -24 0 -28 -22 -28 -22 0 -26 4 -26 31 0 26 3 30
23 27 16 -2 23 -11 25 -30z m62 -2 c0 -7 -6 -20 -13 -30 -15 -20 -48 -12 -41
10 2 8 6 20 8 28 6 17 46 10 46 -8z m-545 -91 c17 -2 44 -8 60 -13 28 -8 30
-12 26 -47 -1 -22 -7 -50 -12 -63 -5 -13 -9 -36 -9 -52 0 -15 -7 -43 -15 -61
-14 -34 -14 -34 -15 -6 0 15 5 27 10 27 6 0 10 18 10 41 0 24 -4 38 -10 34 -6
-4 -10 12 -10 39 0 34 4 46 15 46 8 0 15 5 15 10 0 6 -11 10 -25 10 -21 0 -25
-5 -25 -30 0 -16 -4 -30 -10 -30 -5 0 -10 -9 -10 -20 0 -11 -5 -20 -11 -20 -6
0 -8 7 -5 15 3 9 -1 18 -9 21 -17 7 -21 44 -5 44 6 0 10 -9 10 -20 0 -11 5
-20 10 -20 6 0 10 18 10 40 0 37 -2 40 -29 40 -16 0 -31 6 -34 14 -4 11 0 13
16 10 12 -3 36 -7 52 -9z m335 -75 c0 -6 6 -10 13 -9 22 3 37 -1 37 -8 0 -5
-25 -6 -55 -5 -53 4 -55 3 -55 -21 0 -14 5 -29 10 -32 6 -3 10 -1 10 4 0 6 5
11 10 11 6 0 10 -15 10 -34 0 -19 -4 -38 -10 -41 -5 -3 -10 3 -10 15 0 12 -4
19 -9 15 -18 -10 -28 29 -19 73 8 38 12 42 39 42 16 0 29 -5 29 -10z m-309
-123 c-1 -12 -15 -9 -19 4 -3 6 1 10 8 8 6 -3 11 -8 11 -12z"/>
<path d="M2812 3570 c0 -14 2 -19 5 -12 2 6 2 18 0 25 -3 6 -5 1 -5 -13z"/>
<path d="M2648 3466 c-38 -16 -80 -55 -73 -66 8 -13 42 -13 50 0 4 6 11 8 16
5 12 -8 34 14 41 42 8 29 0 33 -34 19z"/>
<path d="M2429 3410 l-38 -40 -3 33 -3 32 -104 3 c-77 2 -107 -1 -113 -10 -12
-20 -9 -580 4 -595 14 -18 191 -18 206 0 6 7 12 89 14 187 4 153 7 182 27 233
24 60 42 77 64 59 7 -6 21 -6 34 -1 44 16 58 84 23 119 -32 32 -68 25 -111
-20z"/>
<path d="M3760 3429 c-90 -40 -141 -116 -162 -239 -35 -204 89 -377 269 -373
71 2 122 24 171 76 27 28 33 41 30 68 -4 48 -38 52 -68 8 -26 -36 -90 -68
-137 -69 l-33 0 0 95 0 94 138 3 137 3 3 35 c9 88 -34 204 -95 262 -62 60
-169 75 -253 37z m134 -65 c13 -5 16 -23 16 -95 l0 -89 -40 0 -40 0 0 95 c0
94 0 95 24 95 13 0 31 -3 40 -6z"/>
<path d="M2625 3389 c-4 -5 -4 -13 -1 -16 3 -4 6 0 6 8 0 11 2 11 10 -1 6 -9
10 -10 10 -3 0 17 -17 25 -25 12z"/>
<path d="M2973 3083 c-26 -75 -55 -137 -77 -166 -27 -35 -33 -57 -16 -57 18 0
68 80 92 146 l23 64 47 0 c36 0 48 4 48 15 0 24 -108 21 -117 -2z"/>
<path d="M2772 2884 c-17 -11 -22 -25 -22 -58 0 -49 13 -66 51 -66 34 0 51 21
52 66 1 27 -5 41 -22 55 -28 23 -31 23 -59 3z"/>
<path d="M2605 2819 c-13 -19 24 -59 54 -59 36 0 62 27 35 36 -11 3 -33 12
-51 19 -21 9 -34 11 -38 4z"/>
<path d="M2111 1682 c-85 -45 -140 -149 -127 -236 20 -122 117 -205 239 -206
137 0 237 102 237 242 0 173 -193 283 -349 200z"/>
<path d="M3365 1690 c-85 -38 -135 -119 -135 -217 1 -136 100 -233 237 -233
72 0 127 25 172 75 45 52 61 93 61 160 0 66 -16 108 -59 157 -65 74 -186 99
-276 58z"/>
</g>
</svg>
